<?xml version="1.0" encoding="utf-8"?>
<!-- Generator: Adobe Illustrator 22.1.0, SVG Export Plug-In . SVG Version: 6.00 Build 0)  -->
<svg version="1.1" id="Calque_1" xmlns="http://www.w3.org/2000/svg" xmlns:xlink="http://www.w3.org/1999/xlink" x="0px" y="0px"
	 viewBox="0 0 336.2 74.4" style="enable-background:new 0 0 336.2 74.4;" xml:space="preserve">
<style type="text/css">
	.st0{fill:#EB671B;}
	.st1{opacity:0.35;fill:#EB671B;}
</style>
<path class="st0" d="M102.4,74h-6.6V59.4L82.4,33.8h7.3L99,53.4l9.2-19.6h7.4l-13.3,25.6V74z"/>
<path class="st0" d="M130.3,57.7V74h-6.6V33.8h13.9c4.5,0,8.1,1.1,10.5,3.4c2.5,2.3,3.7,5.1,3.7,8.6c0,2.7-0.8,5.1-2.5,7.3
	c-1.6,2.2-4.2,3.6-7.5,4.2L152.5,74h-8l-10.1-16.3H130.3z M130.3,38.9v13.6h7.3c2.5,0,4.4-0.6,5.6-1.8c1.2-1.2,1.8-2.9,1.8-5
	c0-2.1-0.6-3.8-1.8-5c-1.2-1.2-3.1-1.8-5.6-1.8H130.3z"/>
<path class="st0" d="M181.5,74.4c-5.8,0-10.6-1.9-14.6-5.8c-4-3.9-6-8.8-6-14.7c0-6,2-10.9,6-14.7s8.8-5.8,14.6-5.8
	c5.8,0,10.6,1.9,14.6,5.8c3.9,3.9,5.9,8.8,5.9,14.7c0,6-2,10.9-5.9,14.7C192.1,72.4,187.3,74.4,181.5,74.4z M181.5,68.4
	c4,0,7.3-1.3,9.9-4c2.6-2.7,3.8-6.2,3.8-10.6c0-4.4-1.3-7.9-3.8-10.5c-2.6-2.7-5.9-4-9.9-4c-4,0-7.3,1.3-9.9,4s-3.8,6.2-3.8,10.5
	c0,4.4,1.3,7.9,3.8,10.6C174.1,67.1,177.4,68.4,181.5,68.4z"/>
<path class="st0" d="M211.4,33.8h6.6v35.1h13.6v5h-20.2V33.8z"/>
<path class="st0" d="M239.9,33.8h6.6v35.1h13.6v5h-20.2V33.8z"/>
<path class="st0" d="M290.6,33.7v5.1H275v12.2h13.9v5.1H275v12.7h15.6V74h-22.2V33.7H290.6z"/>
<path class="st0" d="M314.1,38.7c-2,0-3.6,0.5-4.8,1.5c-1.2,1-1.8,2.5-1.8,4.4c0,1.9,0.7,3.4,2.2,4.4c1.5,1,3.2,1.7,5.3,2.2
	c2.1,0.5,4.2,1,6.2,1.6c2.1,0.6,3.9,1.7,5.3,3.3s2.2,3.9,2.2,6.9c0,3-1.3,5.6-3.8,8c-2.5,2.3-5.9,3.5-10.1,3.5
	c-4.2,0-7.6-1-10.2-2.9c-2.6-2-3.9-4.7-3.9-8.1h7c0.2,1.8,0.8,3.2,2,4.2c1.2,1,2.9,1.6,5.1,1.6s4-0.6,5.3-1.7
	c1.3-1.2,1.9-2.5,1.9-4.1c0-1.6-0.4-2.8-1.2-3.7c-0.8-0.9-1.8-1.6-3.1-2c-1.3-0.4-2.6-0.8-4.1-1.2c-1.5-0.3-3-0.8-4.5-1.2
	c-1.5-0.5-2.9-1.1-4.2-1.8c-1.3-0.7-2.3-1.8-3.1-3.2c-0.8-1.4-1.2-3.1-1.2-5.2c0-3.5,1.3-6.3,3.8-8.5c2.5-2.1,5.8-3.2,9.8-3.2
	s7.2,0.9,9.7,2.8c2.4,1.8,3.7,4.5,4,8h-7.3c-0.2-1.5-0.8-2.8-2-3.9C317.6,39.2,316.1,38.7,314.1,38.7z"/>
<g>
	<g>
		<path d="M91.4,1.9h2.7v18.6h8.9v2.3H91.4V1.9z"/>
		<path d="M110.5,3.5c0,0.9-0.7,1.7-1.7,1.7c-1,0-1.6-0.7-1.6-1.7c0-1,0.7-1.7,1.7-1.7C109.9,1.8,110.5,2.6,110.5,3.5z M107.5,22.7
			v-15h2.7v15H107.5z"/>
		<path d="M116.2,22.7c0.1-1,0.1-2.5,0.1-3.9V0.8h2.7v9.4h0.1c1-1.7,2.7-2.8,5.1-2.8c3.7,0,6.3,3.1,6.3,7.6c0,5.4-3.4,8-6.7,8
			c-2.2,0-3.9-0.8-5-2.8h-0.1l-0.1,2.5H116.2z M119,16.7c0,0.3,0.1,0.7,0.1,1c0.5,1.9,2.1,3.2,4.1,3.2c2.8,0,4.6-2.3,4.6-5.8
			c0-3-1.5-5.6-4.5-5.6c-1.9,0-3.6,1.3-4.1,3.3c-0.1,0.3-0.2,0.7-0.2,1.1V16.7z"/>
		<path d="M135.5,12.4c0-1.8,0-3.3-0.1-4.7h2.4l0.1,2.9h0.1c0.7-2,2.3-3.3,4.1-3.3c0.3,0,0.5,0,0.8,0.1v2.6
			c-0.3-0.1-0.6-0.1-0.9-0.1c-1.9,0-3.3,1.5-3.7,3.5c-0.1,0.4-0.1,0.8-0.1,1.3v8h-2.7V12.4z"/>
		<path d="M155.3,22.7l-0.2-1.9H155c-0.8,1.2-2.4,2.2-4.6,2.2c-3,0-4.6-2.1-4.6-4.3c0-3.6,3.2-5.6,9-5.6v-0.3c0-1.2-0.3-3.5-3.4-3.5
			c-1.4,0-2.8,0.4-3.9,1.1l-0.6-1.8c1.2-0.8,3-1.3,4.9-1.3c4.6,0,5.7,3.1,5.7,6.1v5.6c0,1.3,0.1,2.6,0.2,3.6H155.3z M154.9,15.1
			c-3-0.1-6.3,0.5-6.3,3.4c0,1.8,1.2,2.6,2.6,2.6c2,0,3.2-1.2,3.6-2.5c0.1-0.3,0.2-0.6,0.2-0.9V15.1z"/>
		<path d="M166.5,3.5c0,0.9-0.7,1.7-1.7,1.7c-1,0-1.6-0.7-1.6-1.7c0-1,0.7-1.7,1.7-1.7C165.8,1.8,166.5,2.6,166.5,3.5z M163.4,22.7
			v-15h2.7v15H163.4z"/>
		<path d="M172.2,12.4c0-1.8,0-3.3-0.1-4.7h2.4l0.1,2.9h0.1c0.7-2,2.3-3.3,4.1-3.3c0.3,0,0.5,0,0.8,0.1v2.6
			c-0.3-0.1-0.6-0.1-0.9-0.1c-1.9,0-3.3,1.5-3.7,3.5c-0.1,0.4-0.1,0.8-0.1,1.3v8h-2.7V12.4z"/>
		<path d="M187.1,3.5c0,0.9-0.6,1.7-1.7,1.7c-1,0-1.6-0.7-1.6-1.7c0-1,0.7-1.7,1.7-1.7C186.4,1.8,187.1,2.6,187.1,3.5z M184,22.7
			v-15h2.7v15H184z"/>
		<path d="M194.3,15.7c0.1,3.7,2.4,5.2,5.1,5.2c2,0,3.1-0.3,4.1-0.8l0.5,2c-1,0.4-2.6,0.9-5,0.9c-4.6,0-7.4-3-7.4-7.6
			c0-4.5,2.7-8.1,7-8.1c4.9,0,6.2,4.3,6.2,7.1c0,0.6-0.1,1-0.1,1.3H194.3z M202.3,13.8c0-1.7-0.7-4.4-3.8-4.4c-2.8,0-4,2.5-4.2,4.4
			H202.3z"/>
	</g>
</g>
<path class="st0" d="M73.1,0v9.5H44.4v22.4H70v9.4H44.4v23.3h28.7V74H32.3V0H73.1z"/>
<g>
	<rect class="st1" width="32.3" height="9.5"/>
	<rect x="3.2" y="31.9" class="st1" width="29.1" height="9.4"/>
	<rect y="64.5" class="st1" width="32.3" height="9.5"/>
</g>
</svg>
